<svg xmlns="http://www.w3.org/2000/svg" aria-hidden="true" style="position:absolute;width:0;height:0;overflow:hidden">
  <defs>
    <symbol id="icon-facebook" viewBox="0 0 16 16">
      <path
        d="M10.665 2.657h1.461V.113A18.755 18.755 0 0 0 9.998 0C7.892 0 6.449 1.325 6.449 3.759V6H4.125v2.844h2.324V16h2.849V8.845h2.23l.354-2.844H9.297V4.042c.001-.822.222-1.385 1.367-1.385z" />
    </symbol>
    <symbol id="icon-linkedin" viewBox="0 0 16 16">
      <path
        d="M15.996 16v-.001H16v-5.868c0-2.871-.618-5.082-3.974-5.082-1.613 0-2.696.885-3.138 1.725h-.047V5.317H5.659v10.682h3.313V10.71c0-1.393.264-2.739 1.989-2.739 1.699 0 1.725 1.589 1.725 2.829v5.201h3.31zM.264 5.318h3.317V16H.264V5.318zM1.921 0C.86 0 0 .861 0 1.921S.861 3.86 1.921 3.86c1.061 0 1.921-.879 1.921-1.939S2.981 0 1.921 0z" />
    </symbol>
    <symbol id="icon-instagram" viewBox="0 0 16 16">
      <path
        d="M15.984 4.704c-.037-.85-.175-1.435-.372-1.941a3.904 3.904 0 0 0-.925-1.419 3.944 3.944 0 0 0-1.416-.922C12.762.225 12.18.088 11.33.05 10.473.009 10.202 0 8.029 0S5.585.009 4.731.047c-.85.037-1.435.175-1.941.372a3.904 3.904 0 0 0-1.419.925c-.406.4-.722.885-.922 1.416-.197.51-.334 1.091-.372 1.941-.041.856-.05 1.128-.05 3.301s.009 2.444.047 3.298c.037.85.175 1.435.372 1.941.203.538.519 1.019.925 1.419.4.406.885.722 1.416.922.51.197 1.091.335 1.941.372.853.038 1.125.047 3.298.047s2.444-.009 3.298-.047c.85-.037 1.435-.175 1.941-.372a4.095 4.095 0 0 0 2.341-2.341c.197-.509.334-1.091.372-1.941.038-.853.047-1.125.047-3.298s-.003-2.444-.041-3.298zm-1.441 6.532c-.034.781-.166 1.203-.275 1.485a2.655 2.655 0 0 1-1.519 1.519c-.281.109-.706.241-1.485.275-.844.038-1.097.047-3.232.047s-2.391-.009-3.232-.047c-.781-.034-1.203-.166-1.485-.275a2.453 2.453 0 0 1-.919-.597 2.477 2.477 0 0 1-.597-.919c-.109-.281-.241-.706-.275-1.485-.038-.844-.047-1.097-.047-3.232s.009-2.391.047-3.232c.034-.781.166-1.203.275-1.485.128-.347.331-.663.6-.919.259-.266.572-.469.919-.597.281-.109.706-.241 1.485-.275.844-.037 1.097-.047 3.232-.047 2.138 0 2.391.009 3.232.047.781.034 1.203.166 1.485.275.347.128.663.331.919.597.266.259.469.572.597.919.109.281.241.706.275 1.485.037.844.047 1.097.047 3.232s-.009 2.385-.047 3.229z" />
      <path
        d="M8.03 3.891a4.111 4.111 0 0 0 0 8.22 4.111 4.111 0 0 0 0-8.22zm0 6.777a2.667 2.667 0 1 1 .001-5.333 2.667 2.667 0 0 1-.001 5.333zM13.262 3.729a.96.96 0 1 1-1.92 0 .96.96 0 0 1 1.92 0z" />
    </symbol>
    <symbol id="icon-twitter" viewBox="0 0 16 16">
      <path
        d="M16 3.039a6.839 6.839 0 0 1-1.89.518 3.262 3.262 0 0 0 1.443-1.813 6.555 6.555 0 0 1-2.08.794 3.28 3.28 0 0 0-5.674 2.243c0 .26.022.51.076.748a9.284 9.284 0 0 1-6.761-3.431 3.285 3.285 0 0 0 1.008 4.384A3.24 3.24 0 0 1 .64 6.078v.036a3.295 3.295 0 0 0 2.628 3.223 3.274 3.274 0 0 1-.86.108 2.9 2.9 0 0 1-.621-.056 3.311 3.311 0 0 0 3.065 2.285 6.59 6.59 0 0 1-4.067 1.399c-.269 0-.527-.012-.785-.045A9.234 9.234 0 0 0 5.032 14.5c6.036 0 9.336-5 9.336-9.334 0-.145-.005-.285-.012-.424A6.544 6.544 0 0 0 16 3.039z" />
    </symbol>
    <symbol id="icon-ya-co" viewBox="0 0 31 16">
      <path
        d="M12.727 4.182l1.273 1.215-2.364-0.002v5.891h6.182v-2.255l1.273 1.213v-6.062h-6.364zM17.764 8.891l-3.616-3.445h3.616v3.445zM16.64 10.422h-4.025v-3.96h0.285v3.691h3.74v0.269zM13.418 12.375l-0.151-0.309h-0.124l0.218 0.409v0.236h0.111v-0.236l0.218-0.409h-0.124l-0.149 0.309zM13.971 12.065h0.025l0.245 0.647h-0.118l-0.053-0.151h-0.249l-0.053 0.151h-0.116l0.244-0.647h0.075zM13.853 12.473h0.189l-0.095-0.273-0.095 0.273zM14.635 12.365c-0.021-0.024-0.038-0.050-0.052-0.080l-0.001-0.002c-0.009-0.020-0.014-0.043-0.014-0.068 0-0.030 0.008-0.059 0.022-0.084l-0 0.001c0.014-0.023 0.034-0.042 0.057-0.054l0.001-0c0.025-0.015 0.055-0.020 0.089-0.020 0.033 0 0.060 0.005 0.084 0.018 0.045 0.024 0.075 0.070 0.075 0.124 0 0.020-0.004 0.039-0.012 0.057l0-0.001c-0.008 0.018-0.018 0.033-0.031 0.046l0-0c-0.013 0.015-0.027 0.027-0.045 0.040l-0.044 0.033 0.127 0.151c0.018-0.034 0.029-0.075 0.029-0.118 0-0.001 0-0.001 0-0.002v0h0.091c0 0.031-0.002 0.060-0.009 0.089-0.009 0.040-0.025 0.076-0.048 0.106l0.001-0.001 0.095 0.113h-0.124l-0.036-0.044c-0.022 0.015-0.044 0.027-0.067 0.036-0.029 0.010-0.062 0.016-0.096 0.016-0.042 0-0.081-0.009-0.117-0.024l0.002 0.001c-0.030-0.015-0.055-0.037-0.072-0.065l-0-0.001c-0.016-0.026-0.025-0.057-0.025-0.090 0-0.027 0.006-0.052 0.016-0.074l-0 0.001c0.011-0.018 0.025-0.038 0.044-0.055 0.018-0.018 0.036-0.033 0.060-0.049zM14.685 12.431l-0.013 0.009c-0.014 0.010-0.026 0.022-0.036 0.036l-0 0c-0.011 0.017-0.018 0.037-0.018 0.059 0 0.018 0.004 0.035 0.012 0.050l-0-0.001c0.009 0.016 0.020 0.029 0.036 0.036 0.016 0.011 0.036 0.015 0.058 0.015 0 0 0.001 0 0.001 0 0.039 0 0.075-0.014 0.103-0.037l-0 0-0.144-0.169zM14.711 12.313l0.040-0.027c0.016-0.010 0.029-0.022 0.040-0.036l0-0c0.008-0.012 0.013-0.027 0.013-0.043 0-0.001-0-0.001-0-0.002v0c-0.001-0.034-0.029-0.062-0.064-0.062-0.001 0-0.003 0-0.004 0l0-0c-0.001-0-0.001-0-0.002-0-0.026 0-0.049 0.015-0.059 0.038l-0 0c-0.005 0.011-0.008 0.024-0.008 0.038 0 0.015 0.004 0.030 0.010 0.042l-0-0.001 0.027 0.044 0.007 0.009zM15.842 12.502h-0.109c-0.003 0.027-0.011 0.052-0.022 0.074l0.001-0.001c-0.010 0.019-0.026 0.034-0.045 0.043l-0.001 0c-0.020 0.009-0.044 0.015-0.069 0.015-0.003 0-0.005-0-0.008-0l0 0c-0.001 0-0.002 0-0.002 0-0.024 0-0.046-0.006-0.066-0.017l0.001 0c-0.019-0.011-0.034-0.025-0.045-0.043l-0-0.001c-0.012-0.019-0.022-0.042-0.027-0.066l-0-0.001c-0.005-0.027-0.007-0.056-0.007-0.089v-0.053c0-0.035 0.002-0.065 0.009-0.091 0.005-0.027 0.016-0.051 0.029-0.069s0.027-0.031 0.047-0.042c0.018-0.008 0.038-0.013 0.060-0.013 0.002 0 0.004 0 0.006 0l-0-0c0.031 0 0.056 0.005 0.076 0.015 0.018 0.011 0.033 0.025 0.044 0.045 0.009 0.020 0.016 0.044 0.018 0.073h0.113c-0.005-0.044-0.018-0.082-0.036-0.116-0.020-0.033-0.047-0.058-0.084-0.078-0.035-0.017-0.076-0.028-0.119-0.028-0.004 0-0.008 0-0.012 0l0.001-0c-0.040 0-0.076 0.005-0.109 0.020s-0.060 0.036-0.084 0.062c-0.022 0.027-0.040 0.060-0.053 0.096s-0.018 0.080-0.018 0.127v0.055c0 0.045 0.005 0.087 0.018 0.124 0.013 0.038 0.029 0.071 0.053 0.096 0.044 0.051 0.108 0.084 0.181 0.084 0.003 0 0.006-0 0.009-0l-0 0c0.053 0 0.096-0.009 0.133-0.029 0.036-0.018 0.065-0.045 0.085-0.078 0.018-0.033 0.031-0.071 0.036-0.113zM16.46 12.407v-0.036c0-0.047-0.007-0.091-0.020-0.131-0.013-0.036-0.031-0.073-0.055-0.098s-0.052-0.047-0.084-0.061l-0.002-0.001c-0.031-0.014-0.068-0.022-0.106-0.022-0.001 0-0.002 0-0.003 0h0c-0.040 0-0.076 0.007-0.109 0.022-0.033 0.013-0.060 0.035-0.084 0.062s-0.044 0.060-0.055 0.098c-0.015 0.040-0.020 0.084-0.020 0.131v0.036c0 0.049 0.005 0.091 0.018 0.131 0.015 0.040 0.033 0.073 0.056 0.1 0.045 0.051 0.111 0.084 0.184 0.084 0.003 0 0.006-0 0.009-0l-0 0c0.040 0 0.076-0.007 0.109-0.022 0.035-0.015 0.062-0.036 0.085-0.062 0.024-0.027 0.042-0.060 0.055-0.1 0.013-0.038 0.018-0.082 0.018-0.131zM16.347 12.371v0.036c0 0.036-0.004 0.067-0.011 0.096-0.005 0.027-0.016 0.051-0.029 0.069s-0.029 0.033-0.048 0.043l-0.001 0c-0.019 0.009-0.041 0.015-0.064 0.015-0.001 0-0.002-0-0.004-0h0c-0.001 0-0.001 0-0.002 0-0.023 0-0.045-0.005-0.064-0.015l0.001 0c-0.020-0.011-0.036-0.025-0.049-0.043l-0-0c-0.013-0.018-0.024-0.042-0.031-0.069s-0.011-0.059-0.011-0.092c0-0.002 0-0.003 0-0.005v0-0.036c0-0.036 0.004-0.067 0.011-0.096 0.007-0.027 0.018-0.051 0.031-0.069s0.029-0.033 0.049-0.042c0.018-0.011 0.040-0.015 0.065-0.015 0.001-0 0.001-0 0.002-0 0.023 0 0.045 0.005 0.064 0.015l-0.001-0c0.020 0.009 0.036 0.024 0.049 0.042 0.015 0.018 0.025 0.042 0.031 0.069 0.007 0.029 0.011 0.060 0.011 0.096z">
      </path>
    </symbol>
    <symbol id="icon-comp" viewBox="0 0 31 16">
      <path
        d="M14.927 4h-0.2c-0.035-0.001-0.077-0.002-0.118-0.002s-0.083 0.001-0.124 0.002l0.006-0c-0.655 0.018-1.309 0.182-1.909 0.473l-0.091 0.036v4.036l0.182-0.073c0.594-0.202 1.279-0.327 1.991-0.345l0.009-0v0.545h-0.2c-0.919 0.047-1.77 0.297-2.522 0.706l0.031-0.015v-5.164c0.781-0.467 1.721-0.743 2.727-0.745h0.091c0.344 0.015 0.668 0.061 0.981 0.134l-0.036-0.007v0.509c-0.218-0.055-0.436-0.073-0.655-0.091h-0.182zM15.836 4.527h0.364c1.008-0.003 1.953-0.265 2.774-0.724l-0.029 0.015v5.091c-0.775 0.453-1.706 0.72-2.699 0.72-0.37 0-0.732-0.037-1.081-0.108l0.035 0.006v-5.091c0.19 0.044 0.414 0.076 0.643 0.090l0.012 0.001zM18.418 4.564l-0.182 0.055-0.509 0.164c-0.459 0.121-0.986 0.19-1.529 0.19-0.115 0-0.228-0.003-0.341-0.009l0.016 0.001h-0.145v4.127h0.109l0.364 0.036c0.782-0.005 1.52-0.192 2.173-0.522l-0.028 0.013 0.073-0.036v-4.018z">
      </path>
      <path
        d="M12.309 11.127c-0.048-0.044-0.111-0.072-0.182-0.073h-0.127c-0.107 0.038-0.182 0.139-0.182 0.257 0 0.005 0 0.011 0 0.016l-0-0.001v0.691c0 0.055 0 0.109 0.036 0.145 0 0.036 0.036 0.073 0.055 0.091l0.109 0.055h0.2c0.108-0.044 0.182-0.148 0.182-0.27 0-0.001 0-0.002-0-0.003v0-0.073h-0.182v0.109l-0.073 0.073h-0.036c-0.005 0.001-0.011 0.002-0.017 0.002-0.030 0-0.057-0.015-0.074-0.038l-0-0-0.018-0.109v-0.655l0.018-0.091c0.014-0.033 0.046-0.055 0.083-0.055 0.003 0 0.005 0 0.008 0l-0-0c0.033 0.004 0.060 0.025 0.072 0.054l0 0.001c0.036 0.018 0.036 0.055 0.036 0.091v0.055h0.182v-0.073c-0.002-0.085-0.036-0.161-0.091-0.218l0 0zM13.382 11.127c-0.055-0.045-0.127-0.072-0.204-0.072-0.037 0-0.073 0.006-0.107 0.018l0.002-0.001c-0.036 0-0.073 0.018-0.091 0.055l-0.073 0.091-0.018 0.127v0.673l0.018 0.127c0 0.036 0.036 0.073 0.073 0.091 0.018 0.036 0.055 0.055 0.091 0.055 0.032 0.013 0.070 0.020 0.109 0.020s0.077-0.007 0.111-0.021l-0.002 0.001c0.036 0 0.073-0.018 0.091-0.055 0.056-0.053 0.091-0.128 0.091-0.211 0-0.002-0-0.005-0-0.007v0-0.673l-0.018-0.127c0-0.036-0.036-0.073-0.073-0.091zM13.309 12.018c0 0.001 0 0.001 0 0.002 0 0.035-0.014 0.066-0.036 0.089l0-0c-0.023 0.024-0.055 0.038-0.091 0.038s-0.068-0.015-0.091-0.038l-0-0c-0.023-0.023-0.036-0.054-0.036-0.089 0-0.001 0-0.001 0-0.002v0-0.673c-0-0.001-0-0.001-0-0.002 0-0.035 0.014-0.066 0.036-0.089l-0 0c0.023-0.024 0.055-0.038 0.091-0.038s0.068 0.015 0.091 0.038l0 0c0.023 0.023 0.036 0.054 0.036 0.089 0 0.001 0 0.001-0 0.002v-0 0.673zM14.8 12.309v-1.255h-0.182l-0.218 0.673-0.236-0.673h-0.182v1.255h0.182v-0.764l0.182 0.545h0.091l0.182-0.545v0.764h0.182zM15.818 11.145l-0.109-0.073h-0.4v1.236h0.182v-0.491h0.091c0.055 0 0.109 0 0.164-0.036l0.091-0.091 0.055-0.109c0.010-0.049 0.015-0.106 0.015-0.164s-0.006-0.114-0.016-0.169l0.001 0.006-0.073-0.109zM15.727 11.509l-0.018 0.091-0.055 0.036c-0.014 0.004-0.029 0.006-0.045 0.006s-0.032-0.002-0.047-0.006l0.001 0h-0.073v-0.418h0.091l0.073 0.018 0.055 0.055v0.236zM16.655 11.055h-0.145l-0.273 1.255h0.182l0.055-0.273h0.236l0.055 0.273h0.182l-0.291-1.255zM16.491 11.873l0.091-0.455 0.091 0.455h-0.182zM17.818 11.818l-0.291-0.764h-0.164v1.255h0.182v-0.745l0.273 0.745h0.182v-1.255h-0.182v0.764zM18.909 11.055l-0.145 0.491-0.164-0.491h-0.182l0.255 0.727v0.527h0.182v-0.545l0.236-0.709h-0.182zM11.818 12.655h0.091v0.255h0.055v-0.255h0.091v-0.036h-0.236v0.036zM12.545 12.618l-0.109 0.291h0.055l0.018-0.073h0.127l0.018 0.073h0.073l-0.127-0.291h-0.055zM12.545 12.8l0.018-0.127 0.055 0.109h-0.091zM13.273 12.8h0.055v0.036l-0.073 0.018c-0.002 0-0.004 0-0.006 0-0.019 0-0.036-0.007-0.048-0.018l0 0-0.036-0.073c0-0.073 0.036-0.109 0.091-0.109 0.005-0.002 0.012-0.003 0.018-0.003 0.030 0 0.055 0.024 0.055 0.055 0 0.001-0 0.002-0 0.003v-0h0.055c0-0.073-0.055-0.109-0.127-0.109l-0.109 0.036c-0.024 0.026-0.039 0.061-0.039 0.099 0 0.010 0.001 0.020 0.003 0.029l-0-0.001c0 0.036 0 0.073 0.036 0.109 0.026 0.023 0.060 0.037 0.097 0.037 0.004 0 0.009-0 0.013-0.001l-0.001 0c0.055 0 0.091 0 0.127-0.055v-0.109h-0.127v0.055zM14 12.618h-0.073v0.291h0.2v-0.055h-0.127v-0.236zM14.6 12.618h-0.055v0.291h0.055v-0.291zM15.2 12.8l-0.109-0.182h-0.055v0.291h0.055v-0.182l0.109 0.182h0.055v-0.291h-0.055v0.182zM15.745 12.782h0.145v-0.055h-0.145v-0.073h0.164v-0.036h-0.218v0.291h0.218v-0.055h-0.164v-0.073zM17.091 12.727h-0.127v-0.109h-0.055v0.291h0.055v-0.127h0.109v0.127h0.055v-0.291h-0.036v0.109zM17.636 12.782h0.127v-0.055h-0.127v-0.073h0.164v-0.036h-0.218v0.291h0.218v-0.055h-0.164v-0.073zM18.364 12.782c0.055 0 0.073-0.036 0.073-0.091 0-0.002 0-0.004 0-0.006 0-0.019-0.007-0.036-0.018-0.048l0 0c-0.022-0.012-0.048-0.019-0.076-0.019-0.005 0-0.010 0-0.015 0.001l0.001-0h-0.127v0.291h0.073v-0.127h0.036l0.018 0.036 0.073 0.091h0.073l-0.036-0.055-0.073-0.073zM18.309 12.727h-0.036v-0.073h0.091c0.008 0.007 0.012 0.016 0.012 0.027s-0.005 0.021-0.012 0.027l-0 0v0.018c-0.008 0.001-0.018 0.002-0.027 0.002s-0.019-0.001-0.028-0.002l0.001 0zM18.927 12.782h0.145v-0.055h-0.145v-0.073h0.164v-0.036h-0.218v0.291h0.218v-0.055h-0.164v-0.073z">
      </path>
    </symbol>
    <symbol id="icon-company" viewBox="0 0 31 16">
      <path
        d="M12.509 11.855h0.018l0.036 0.055-0.109 0.073-0.164 0.018-0.145-0.018c-0.055-0.018-0.091-0.036-0.109-0.073-0.036-0.036-0.073-0.073-0.073-0.109-0.018-0.040-0.028-0.087-0.028-0.136s0.010-0.096 0.029-0.139l-0.001 0.002c0-0.036 0.036-0.073 0.073-0.091l0.127-0.073c0.043-0.015 0.093-0.023 0.145-0.023s0.102 0.008 0.149 0.024l-0.003-0.001 0.109 0.055-0.036 0.036h-0.073c-0.041-0.023-0.089-0.036-0.141-0.036-0.002 0-0.003 0-0.005 0h-0.109l-0.091 0.073-0.055 0.073-0.018 0.109 0.018 0.109c0.028 0.061 0.080 0.107 0.144 0.127l0.002 0h0.164c0 0 0.001 0 0.001 0 0.047 0 0.090-0.014 0.127-0.037l-0.001 0.001h0.018zM13.673 11.673c0 0.036 0 0.091-0.036 0.127 0 0.036-0.036 0.073-0.073 0.109-0.031 0.030-0.067 0.054-0.107 0.072l-0.002 0.001h-0.309c-0.049-0.016-0.092-0.041-0.128-0.073l0 0-0.073-0.109c-0.036-0.091-0.036-0.182 0-0.273l0.073-0.091 0.127-0.073c0.091-0.036 0.2-0.036 0.309 0 0.036 0 0.073 0.036 0.109 0.073 0.067 0.057 0.109 0.141 0.109 0.236 0 0 0 0 0 0.001v-0zM13.564 11.673l-0.018-0.109c-0.026-0.062-0.079-0.109-0.144-0.127l-0.002-0c-0.033-0.011-0.070-0.017-0.109-0.017s-0.076 0.006-0.112 0.017l0.003-0.001-0.073 0.036c-0.036 0.036-0.055 0.055-0.055 0.091-0.036 0.073-0.036 0.145 0 0.218 0.023 0.059 0.068 0.105 0.126 0.127l0.002 0.001h0.218c0.036 0 0.073-0.036 0.091-0.055l0.055-0.073 0.018-0.109zM14.455 11.782v0.018l0.036-0.018v-0.018l0.255-0.4h0.018l0.018-0.018h0.091v0.655h-0.091v-0.545l-0.273 0.4v0.018h-0.073l-0.273-0.418v0.545h-0.091v-0.655h0.109l0.273 0.418v0.018zM15.418 11.745v0.255h-0.091v-0.655h0.345l0.091 0.055 0.055 0.055v0.091c0 0.005 0.001 0.010 0.001 0.015 0 0.051-0.021 0.097-0.055 0.13l-0 0-0.091 0.036-0.127 0.018h-0.127zM15.418 11.673h0.218c0.036 0 0.055-0.018 0.055-0.036l0.036-0.036 0.018-0.055v-0.055l-0.036-0.036c-0.055-0.036-0.091-0.036-0.145-0.036h-0.127v0.255zM16.782 12h-0.091l-0.036-0.036-0.055-0.145h-0.364l-0.055 0.145v0.018h-0.127l0.291-0.636h0.109l0.309 0.655zM16.273 11.745h0.291l-0.127-0.255v-0.055l-0.036 0.018v0.036l-0.127 0.255zM17.2 11.345h0.018l0.436 0.509v-0.509h0.091v0.655h-0.055l-0.018-0.018-0.436-0.491v0.509h-0.091v-0.655h0.055zM18.491 11.727v0.273h-0.091v-0.273l-0.291-0.382h0.109l0.018 0.018 0.182 0.255c0.006 0.015 0.013 0.033 0.018 0.052l0.001 0.003 0.018-0.018 0.018-0.036 0.182-0.255 0.018-0.018h0.091l-0.273 0.382zM14.418 10.255h0.127c0.673-0.236 1.255-0.673 1.636-1.2 0.4-0.545 0.618-1.164 0.6-1.8l-0.745-0.636c0.145 0.673 0.073 1.382-0.218 2.018-0.31 0.679-0.789 1.235-1.386 1.627l-0.014 0.009z">
      </path>
      <path
        d="M14.145 10.236h0.018c0.691-0.418 1.2-1 1.491-1.673 0.168-0.369 0.266-0.8 0.266-1.254 0-0.304-0.044-0.599-0.126-0.877l0.006 0.022-1.073-0.909c0.343 0.563 0.547 1.245 0.547 1.974 0 1.062-0.431 2.023-1.128 2.717l-0 0zM17.745 8c-0.208 0.745-0.652 1.366-1.245 1.793l-0.010 0.007c-0.169 0.128-0.359 0.249-0.56 0.353l-0.022 0.011c0.509-0.127 0.982-0.364 1.382-0.673 0.382-0.309 0.691-0.691 0.891-1.109l-0.436-0.364z">
      </path>
      <path
        d="M17.582 7.909l-0.618-0.545c0 0.618-0.2 1.2-0.564 1.709s-0.909 0.927-1.509 1.2h0.418c0.579-0.208 1.071-0.531 1.472-0.944l0.001-0.001c0.4-0.418 0.673-0.909 0.8-1.418zM14.236 5.164l-0.727-0.618c-0.659 0.208-1.215 0.587-1.632 1.085l-0.004 0.005c-0.382 0.491-0.6 1.091-0.6 1.673 0.010 0.704 0.284 1.342 0.729 1.82l-0.002-0.002c0.491 0.545 1.164 0.909 1.909 1.073 0.673-0.709 1.073-1.564 1.127-2.473s-0.218-1.8-0.8-2.545zM19.273 7.818c0-0.8-0.364-1.545-1.018-2.109-0.672-0.541-1.536-0.869-2.477-0.869-0.441 0-0.864 0.072-1.26 0.205l0.028-0.008 4.473 3.818c0.164-0.327 0.236-0.691 0.236-1.055z">
      </path>
    </symbol>
    <symbol id="icon-foster-pet" viewBox="0 0 31 16">
      <path
        d="M10.182 6.818c-0.418 0-0.764 0.327-0.764 0.727 0 0.364 0.345 0.691 0.782 0.691s0.782-0.309 0.782-0.709c0-0.382-0.364-0.709-0.782-0.709zM16 6.6c0-0.545-0.255-1.073-0.673-1.455-0.423-0.373-0.982-0.6-1.594-0.6-0.002 0-0.004 0-0.006 0h0c-0.618 0-1.182 0.218-1.618 0.6-0.418 0.382-0.655 0.909-0.655 1.455v2.982s4.545-0.455 4.545-2.982zM7.818 10.582c0 0.364 0.182 0.727 0.473 1 0.293 0.26 0.681 0.418 1.106 0.418 0.001 0 0.002 0 0.003 0h-0c0.418 0 0.818-0.145 1.109-0.418 0.282-0.245 0.463-0.6 0.473-0.998l0-0.002v-2.091s-3.164 0.309-3.164 2.091zM9.4 10.945c-0.091 0-0.164-0.018-0.236-0.055l-0.145-0.182c-0.036-0.055-0.036-0.127-0.018-0.2 0-0.073 0.055-0.145 0.109-0.2s0.127-0.091 0.218-0.109c0.073 0 0.164 0 0.236 0.036 0.073 0.018 0.127 0.073 0.182 0.127 0.040 0.057 0.063 0.128 0.063 0.205 0 0.106-0.045 0.201-0.117 0.268l-0 0-0.127 0.091-0.164 0.018zM12.291 10.273v0.782h-0.164v-0.782h0.182zM12.6 10.6v0.127h-0.364v-0.127h0.364zM12.636 10.273v0.127h-0.382v-0.127h0.382zM13.364 10.636v0.055l-0.018 0.145c0 0.055-0.036 0.091-0.073 0.127-0.018 0.036-0.055 0.055-0.109 0.073l-0.127 0.018-0.127-0.018-0.109-0.073c-0.032-0.036-0.056-0.078-0.072-0.125l-0.001-0.003-0.018-0.145v-0.055l0.018-0.145 0.073-0.127 0.109-0.073 0.127-0.018 0.127 0.018c0.055 0.018 0.091 0.036 0.109 0.073l0.073 0.127 0.018 0.145zM13.2 10.691v-0.164l-0.036-0.073c-0.027-0.034-0.068-0.055-0.114-0.055-0.005 0-0.009 0-0.014 0.001l0.001-0h-0.073l-0.055 0.055-0.036 0.073v0.255l0.036 0.091 0.055 0.055h0.145l0.055-0.055 0.036-0.091v-0.091zM13.891 10.855v-0.036l-0.073-0.073-0.091-0.018-0.091-0.036-0.091-0.055-0.055-0.073c-0.004-0.014-0.006-0.029-0.006-0.045s0.002-0.032 0.006-0.047l-0 0.001v-0.073l0.073-0.073 0.091-0.055c0.030-0.008 0.064-0.012 0.099-0.012 0.056 0 0.11 0.011 0.158 0.031l-0.003-0.001 0.109 0.091 0.036 0.127h-0.182v-0.073l-0.036-0.036h-0.073c-0.011-0.002-0.023-0.004-0.036-0.004s-0.025 0.001-0.038 0.004l0.001-0-0.036 0.036-0.018 0.036v0.036l0.036 0.036 0.055 0.018 0.055 0.036 0.127 0.036 0.073 0.055c0.045 0.037 0.073 0.092 0.073 0.154 0 0.003-0 0.006-0 0.010l0-0-0.018 0.091-0.073 0.055-0.091 0.055c-0.029 0.007-0.063 0.011-0.097 0.011-0.085 0-0.165-0.024-0.232-0.067l0.002 0.001-0.073-0.073-0.018-0.127h0.164v0.073l0.036 0.036 0.055 0.018h0.127c0.029-0.013 0.050-0.040 0.055-0.072l0-0zM14.509 10.273v0.782h-0.182v-0.782h0.182zM14.745 10.273v0.127h-0.636v-0.127h0.636zM15.345 10.927v0.127h-0.4v-0.145h0.4zM14.982 10.273v0.782h-0.145v-0.782h0.164zM15.291 10.6v0.109h-0.364v-0.109h0.364zM15.345 10.273v0.127h-0.4v-0.127h0.4zM15.455 10.273h0.273c0.073 0 0.109 0 0.164 0.036 0.036 0 0.073 0.036 0.091 0.073 0.036 0.036 0.036 0.073 0.036 0.127l-0.018 0.109c0 0.036-0.036 0.055-0.055 0.073l-0.091 0.055-0.055 0.018h-0.255v-0.127h0.273l0.055-0.055v-0.127l-0.055-0.036-0.073-0.018h-0.127v0.655h-0.164v-0.782zM15.873 11.055l-0.182-0.364h0.182l0.182 0.364h-0.182zM16.727 10.782h-0.2v-0.127h0.182l0.091-0.018 0.036-0.036v-0.127l-0.036-0.055c-0.020-0.011-0.045-0.018-0.070-0.018-0.001 0-0.002 0-0.002 0h-0.145v0.655h-0.182v-0.782h0.327c0.055 0 0.109 0 0.145 0.036 0.086 0.037 0.145 0.12 0.145 0.218v0l-0.036 0.127c-0.036 0.036-0.055 0.073-0.109 0.091-0.042 0.021-0.092 0.034-0.145 0.036l-0.001 0zM17.636 10.927v0.127h-0.418v-0.145h0.418zM17.273 10.273v0.782h-0.145v-0.782h0.145zM17.582 10.6v0.109h-0.364v-0.109h0.364zM17.636 10.273v0.127h-0.418v-0.127h0.418zM18.091 10.273v0.782h-0.164v-0.782h0.164zM18.327 10.273v0.127h-0.636v-0.127h0.636zM18.945 10.927v0.127h-0.418v-0.145h0.418zM18.582 10.273v0.782h-0.164v-0.782h0.164zM18.891 10.6v0.109h-0.364v-0.109h0.364zM18.945 10.273v0.127h-0.418v-0.127h0.418zM19.036 10.273h0.291c0.055 0 0.109 0 0.145 0.036 0.055 0 0.073 0.036 0.109 0.073l0.036 0.127c0 0.036 0 0.073-0.036 0.109 0 0.036-0.018 0.055-0.055 0.073l-0.091 0.055-0.055 0.018h-0.236v-0.127h0.255l0.036-0.055v-0.127l-0.036-0.036-0.073-0.018h-0.127v0.655h-0.182v-0.782zM19.473 11.055l-0.182-0.364h0.182l0.182 0.364h-0.182zM20.145 10.855v-0.036l-0.036-0.036-0.055-0.036-0.073-0.018-0.091-0.036-0.091-0.055-0.055-0.073c-0.012-0.023-0.019-0.051-0.019-0.080 0-0.004 0-0.008 0-0.011l-0 0.001 0.018-0.073c0-0.036 0.036-0.055 0.055-0.073l0.091-0.055c0.033-0.009 0.071-0.015 0.11-0.015 0.059 0 0.115 0.012 0.165 0.034l-0.003-0.001 0.091 0.091c0.036 0.036 0.036 0.073 0.036 0.127h-0.145l-0.018-0.073-0.055-0.036h-0.073c-0.008-0.001-0.018-0.002-0.027-0.002s-0.019 0.001-0.028 0.002l0.001-0-0.055 0.036v0.073l0.036 0.036 0.109 0.055 0.109 0.036 0.091 0.055 0.036 0.073 0.018 0.091v0.091l-0.073 0.055-0.091 0.055c-0.029 0.007-0.063 0.011-0.097 0.011-0.085 0-0.165-0.024-0.232-0.067l0.002 0.001-0.073-0.073-0.018-0.127h0.145v0.073l0.055 0.036 0.036 0.018h0.145c0.029-0.013 0.050-0.040 0.055-0.072l0-0z">
      </path>
    </symbol>
    <symbol id="icon-brand" viewBox="0 0 31 16">
      <path
        d="M10.691 10.982c0.036 0.036 0.073 0.109 0.073 0.182 0 0.036 0 0.073-0.036 0.109 0 0.036-0.036 0.073-0.073 0.109-0.091 0.055-0.182 0.073-0.309 0.073h-0.527v-1.091h0.527c0.091 0 0.182 0 0.291 0.073l0.073 0.091 0.018 0.109c0 0.073 0 0.127-0.055 0.182-0.036 0.036-0.109 0.073-0.164 0.073 0.073 0.018 0.127 0.055 0.182 0.109zM10.073 10.8h0.218c0.055 0 0.091 0 0.145-0.036l0.036-0.036v-0.127l-0.036-0.055-0.145-0.036h-0.218v0.291zM10.436 11.236c0.036 0 0.055-0.036 0.055-0.055v-0.127l-0.036-0.055-0.164-0.036h-0.218v0.309h0.236c0.055 0 0.091 0 0.145-0.036zM11.745 11.455l-0.273-0.436h-0.109v0.436h-0.273v-1.091h0.473c0.109 0 0.236 0.018 0.327 0.091 0.073 0.055 0.109 0.145 0.109 0.218 0 0.091-0.018 0.182-0.073 0.236-0.055 0.073-0.145 0.109-0.236 0.127l0.309 0.436h-0.273zM11.364 10.873h0.182c0.164 0 0.218-0.055 0.218-0.182v-0.055c-0.009-0.021-0.021-0.039-0.036-0.055l0 0c-0.055-0.036-0.109-0.055-0.182-0.055h-0.182v0.345zM13.109 11.236h-0.491l-0.073 0.218h-0.255l0.455-1.091h0.291l0.455 1.091h-0.273l-0.091-0.218zM13.055 11.055l-0.182-0.455-0.182 0.455h0.364zM14.818 11.455h-0.236l-0.545-0.764v0.764h-0.255v-1.091h0.218l0.545 0.764v-0.764h0.255v1.091zM16.236 11.182c-0.055 0.091-0.127 0.164-0.218 0.2-0.109 0.055-0.236 0.073-0.364 0.073h-0.436v-1.091h0.436c0.127 0 0.255 0 0.364 0.073 0.091 0.036 0.182 0.109 0.218 0.182 0.047 0.084 0.075 0.184 0.075 0.291s-0.028 0.207-0.077 0.294l0.002-0.003zM15.945 11.164c0.071-0.069 0.115-0.166 0.115-0.273s-0.044-0.203-0.115-0.273l-0-0c-0.073-0.055-0.182-0.091-0.309-0.091h-0.182v0.727h0.182c0.127 0 0.236-0.018 0.309-0.091zM13.273 4.145s3.2 1.091 3.127 2.655v2.655s-3.2-1.091-3.127-2.655v-2.655zM19.236 8.836c0.618-0.364 1.309-0.618 2.036-0.673v-0.836c-0.841 0.287-1.537 0.813-2.028 1.497l-0.008 0.012z">
      </path>
      <path
        d="M18.873 9.091c0.509-0.909 1.364-1.6 2.4-1.945v-2.382s-4.545 1.545-4.455 3.782v3.782l0.527-0.2v-0.364c0.113-1.107 0.684-2.061 1.517-2.684l0.010-0.007z">
      </path>
      <path
        d="M18.455 10.491c0.018-0.273 0.073-0.527 0.145-0.782-0.572 0.596-0.934 1.399-0.963 2.285l-0 0.006 0.891-0.418c-0.091-0.364-0.109-0.727-0.073-1.091zM18.636 10.509c-0.036 0.327-0.018 0.655 0.055 0.982 1.236-0.673 2.636-1.709 2.582-2.945v-0.109c-0.891 0.091-1.727 0.436-2.364 0.982-0.145 0.364-0.255 0.727-0.273 1.091z">
      </path>
    </symbol>
    <symbol id="icon-comp-teg-line" viewBox="0 0 31 16">
      <path
        d="M15.545 7.891c-0.069-0.090-0.11-0.205-0.11-0.329 0-0.012 0-0.024 0.001-0.037l-0 0.002v-0.509c0-0.182 0.036-0.291 0.109-0.364 0.073-0.091 0.2-0.127 0.382-0.127s0.291 0.036 0.364 0.091c0.073 0.091 0.109 0.218 0.091 0.327v0.127h-0.291v-0.255c0-0.036-0.036-0.055-0.055-0.073-0.030-0.023-0.068-0.036-0.109-0.036v0c-0.041 0-0.079 0.014-0.11 0.037l0-0c-0.036 0.018-0.055 0.055-0.055 0.073v0.782c0 0.055 0 0.109 0.036 0.182l0.055 0.036h0.073l0.109-0.018 0.036-0.073v-0.273h0.309v0.127c0 0.109-0.018 0.236-0.091 0.327-0.073 0.073-0.182 0.109-0.364 0.109s-0.309-0.036-0.364-0.127zM16.8 7.909c-0.073-0.091-0.109-0.2-0.109-0.364v-0.545c0-0.164 0.036-0.273 0.109-0.364 0.073-0.073 0.182-0.109 0.364-0.109s0.309 0.036 0.382 0.109c0.073 0.091 0.127 0.2 0.127 0.364v0.545c0 0.164-0.055 0.273-0.127 0.364-0.073 0.073-0.182 0.109-0.364 0.109s-0.309-0.036-0.382-0.109zM17.309 7.764c0.036-0.036 0.036-0.091 0.036-0.164v-0.673c0-0.055 0-0.109-0.036-0.164l-0.036-0.036c-0.011-0.002-0.023-0.004-0.036-0.004s-0.025 0.001-0.038 0.004l0.001-0c-0.014-0.004-0.029-0.006-0.045-0.006s-0.032 0.002-0.047 0.006l0.001-0-0.055 0.036c-0.036 0.055-0.036 0.109-0.036 0.182v0.673c0 0.055 0 0.109 0.036 0.164l0.055 0.036c0.024 0.010 0.052 0.016 0.082 0.016s0.058-0.006 0.083-0.016l-0.001 0.001 0.055-0.036zM18.018 6.545h0.327l0.236 1.018 0.255-1.036h0.309l0.036 1.473h-0.236l-0.018-1.018-0.236 1.018h-0.182l-0.255-1.018-0.018 1.018h-0.236l0.018-1.455zM19.545 6.545h0.491c0.291 0 0.436 0.127 0.436 0.4s-0.145 0.4-0.455 0.4h-0.182v0.655h-0.291v-1.455zM19.964 7.164h0.091c0.036 0 0.073-0.036 0.091-0.055 0.036-0.036 0.055-0.091 0.036-0.164v-0.127l-0.073-0.073-0.145-0.018h-0.109v0.436h0.109zM20.909 6.545h0.364l0.327 1.455h-0.291l-0.073-0.327h-0.291l-0.073 0.327h-0.291l0.345-1.455zM21.2 7.491l-0.109-0.618-0.109 0.618h0.218zM21.873 6.545h0.218l0.418 0.836v-0.855h0.255v1.473h-0.218l-0.4-0.873v0.873h-0.273v-1.455zM23.364 7.455l-0.345-0.909h0.291l0.218 0.582 0.182-0.582h0.291l-0.345 0.909v0.545h-0.291v-0.545zM16.036 8.655v0.073h-0.255v0.6h-0.109v-0.6h-0.255v-0.073h0.618zM16.818 9.327h-0.091v-0.018l-0.073-0.182h-0.364l-0.073 0.182-0.036 0.018h-0.073l0.309-0.673h0.109l0.309 0.673zM16.309 9.073h0.291l-0.127-0.273-0.018-0.073v0.036l-0.018 0.036-0.127 0.273zM17.345 9.273h0.073c0.034-0.009 0.065-0.021 0.093-0.037l-0.002 0.001h0.036v-0.182h-0.127v-0.055h0.218v0.255c-0.057 0.037-0.125 0.063-0.198 0.072l-0.002 0h-0.091l-0.164-0.018c-0.049-0.016-0.092-0.041-0.128-0.073l0 0-0.073-0.109c-0.018-0.036-0.036-0.091-0.018-0.145l0.018-0.127 0.073-0.109 0.127-0.073c0.049-0.017 0.105-0.026 0.164-0.026 0.032 0 0.064 0.003 0.094 0.008l-0.003-0c0.053 0.004 0.103 0.017 0.148 0.037l-0.003-0.001 0.055 0.036-0.036 0.055h-0.073l-0.036-0.036c-0.036-0.012-0.077-0.019-0.119-0.019-0.009 0-0.018 0-0.027 0.001l0.001-0c-0.016-0.003-0.035-0.004-0.055-0.004s-0.038 0.002-0.057 0.004l0.002-0-0.091 0.073-0.073 0.073v0.236l0.073 0.091c0.046 0.035 0.103 0.057 0.166 0.057 0.012 0 0.024-0.001 0.035-0.002l-0.001 0zM18.345 9.255h0.327v0.073h-0.436v-0.673h0.109v0.6zM19.036 9.327h-0.109v-0.673h0.109v0.673zM19.418 8.655h0.018l0.455 0.527v-0.527h0.091v0.673h-0.073v-0.018l-0.473-0.509v0.527h-0.091v-0.673h0.073zM20.764 8.655v0.073h-0.364v0.218h0.291v0.073h-0.309v0.236h0.382v0.073h-0.491v-0.673h0.491zM9.673 4.491l4.691 1.145v4.036l-4.691-1.145v-4.036zM9.364 4.127v4.6l5.309 1.309v-4.6l-5.309-1.291z">
      </path>
      <path d="M12.218 12.145l-5.309-1.309v-4.582l5.309 1.309v4.582z"></path>
      <path
        d="M9.455 4.436l4.636 1.127-1.964 1.709-4.636-1.145 1.964-1.691zM9.364 4.145l-2.455 2.109 5.309 1.309 2.455-2.127-5.309-1.291zM12.509 11.891l2.164-1.891-2.164-0.545v2.418z">
      </path>
    </symbol>
    <symbol id="icon-antenna" viewBox="0 0 16 16">
      <path fill="#2e2f42" style="fill: var(--color1, #2e2f42)"
        d="M15.375 11.050l-4.2-4.25 0.45-2.3 0.4 0.050c0.002 0 0.005 0 0.007 0 0.594 0 1.075-0.481 1.075-1.075s-0.481-1.075-1.075-1.075c-0.594 0-1.075 0.481-1.075 1.075 0 0.135 0.025 0.264 0.070 0.382l-0.002-0.007-2.5 0.3-4.025-4.075c-0.045-0.045-0.106-0.074-0.175-0.075h-0c-0.006-0.001-0.013-0.001-0.021-0.001-0.070 0-0.134 0.029-0.179 0.076l-0.75 0.75c-0.052 0.046-0.085 0.113-0.085 0.188s0.033 0.141 0.084 0.187l0 0 0.375 0.425c-0.561 1.024-0.891 2.243-0.891 3.539 0 2.090 0.857 3.979 2.239 5.335l0.001 0.001-0.025 0.25v3.125h-3.2c-0.75 0-1.35 0.6-1.35 1.325v0.525c0 0.15 0.125 0.275 0.275 0.275h12.25c0.175 0 0.275-0.125 0.275-0.25v-0.55c0-0.75-0.575-1.325-1.325-1.325h-3.2v-1.375c0.448 0.095 0.962 0.149 1.489 0.149 1.305 0 2.531-0.333 3.6-0.919l-0.039 0.020 0.4 0.425c0.050 0.050 0.125 0.075 0.2 0.075s0.125 0 0.175-0.075l0.75-0.75c0.125-0.1 0.125-0.25 0-0.375zM11.625 3.125c0.094-0.092 0.224-0.149 0.366-0.149 0.29 0 0.525 0.235 0.525 0.525 0 0.278-0.216 0.506-0.49 0.524l-0.002 0c-0.002 0-0.005 0-0.008 0-0.29 0-0.525-0.235-0.525-0.525 0-0.147 0.060-0.28 0.158-0.375l0-0zM11 4.875l-0.25 1.475-0.625-0.6 0.875-0.875zM10.7 4.425l-0.95 0.95-0.75-0.75 1.7-0.2zM12 14.4c0.45 0 0.8 0.35 0.8 0.8v0.25h-11.75v-0.25c0-0.45 0.375-0.8 0.825-0.8h10.125zM8.25 13.325v0.55h-2.625v-0.55h2.675zM5.6 12.8v-2.025c0-0.65 0.6-1.175 1.325-1.175 0.75 0 1.35 0.525 1.35 1.175v2.025h-2.675zM8.8 11.95v-1.175c0-0.95-0.825-1.7-1.875-1.7-0.007-0-0.016-0-0.025-0-0.669 0-1.257 0.346-1.595 0.868l-0.005 0.007c-1.181-1.24-1.908-2.922-1.908-4.774 0-1.15 0.28-2.235 0.777-3.19l-0.018 0.038 9.3 9.35c-1.425 0.725-3.075 0.925-4.65 0.575zM14.45 11.6l-0.375-0.35-9.775-9.85-0.375-0.4 0.375-0.375 3.975 4 6.55 6.575-0.375 0.375z">
      </path>
      <path fill="#4d5ae5" style="fill: var(--color2, #4d5ae5)"
        d="M6.95 10.125c-0.442 0-0.8 0.358-0.8 0.8s0.358 0.8 0.8 0.8v0c0.442 0 0.8-0.358 0.8-0.8s-0.358-0.8-0.8-0.8v0zM7.125 11.125c-0.039 0.027-0.088 0.043-0.14 0.043-0.138 0-0.25-0.112-0.25-0.25 0-0.117 0.080-0.215 0.188-0.242l0.002-0c0.018-0.005 0.039-0.007 0.060-0.007 0.138 0 0.25 0.112 0.25 0.25 0 0.086-0.043 0.162-0.11 0.207l-0.001 0.001z">
      </path>
    </symbol>
    <symbol id="icon-clock" viewBox="0 0 16 16">
      <path fill="#2e2f42" style="fill: var(--color1, #2e2f42)"
        d="M15.65 7.65c0-0.003 0-0.008 0-0.012 0-4.225-3.425-7.65-7.65-7.65s-7.65 3.425-7.65 7.65c0 3.422 2.247 6.319 5.346 7.297l0.054 0.015c0.075 0 0.125 0 0.175-0.050 0.075-0.025 0.125-0.1 0.15-0.175l1.925-6.125c0.524-0 0.949-0.426 0.949-0.95s-0.425-0.95-0.95-0.95c-0.155 0-0.301 0.037-0.43 0.102l0.005-0.002-2.55-2.575c-0.050-0.033-0.112-0.053-0.178-0.053-0.179 0-0.325 0.146-0.325 0.325 0 0.066 0.020 0.128 0.054 0.179l-0.001-0.001 2.55 2.575c-0.056 0.118-0.089 0.256-0.089 0.402 0 0.303 0.142 0.572 0.362 0.746l0.002 0.002-1.85 5.825c-2.688-1.018-4.564-3.571-4.564-6.562 0-3.866 3.134-7 7-7s7 3.134 7 7c0 2.829-1.678 5.265-4.092 6.369l-0.044 0.018-0.2-0.925c-0.035-0.145-0.163-0.251-0.316-0.251-0.080 0-0.153 0.029-0.209 0.076l0.001-0-1.925 1.7c-0.065 0.060-0.105 0.145-0.105 0.239 0 0.146 0.096 0.269 0.228 0.31l0.002 0.001 2.425 0.8c0.023 0.006 0.050 0.009 0.077 0.009 0.179 0 0.325-0.146 0.325-0.325 0-0.012-0.001-0.024-0.002-0.036l0 0.001-0.2-0.925c2.77-1.184 4.675-3.885 4.675-7.031 0-0.007-0-0.013-0-0.020v0.001zM8 7.325c0.18 0 0.325 0.146 0.325 0.325s-0.146 0.325-0.325 0.325v0c-0.179 0-0.325-0.146-0.325-0.325s0.146-0.325 0.325-0.325v0zM9.050 14.775l1.1-1 0.3 1.425-1.4-0.425z">
      </path>
      <path fill="#4d5ae5" style="fill: var(--color2, #4d5ae5)"
        d="M7.675 1.6v0.625c0 0.179 0.146 0.325 0.325 0.325s0.325-0.146 0.325-0.325v-0.625c0-0.179-0.146-0.325-0.325-0.325s-0.325 0.145-0.325 0.325v0zM1.95 7.325c-0.179 0-0.325 0.146-0.325 0.325s0.145 0.325 0.325 0.325v0h0.625c0.179 0 0.325-0.146 0.325-0.325s-0.146-0.325-0.325-0.325v0h-0.625zM14.050 7.975c0.18 0 0.325-0.146 0.325-0.325s-0.146-0.325-0.325-0.325v0h-0.625c-0.18 0-0.325 0.146-0.325 0.325s0.146 0.325 0.325 0.325v0h0.625z">
      </path>
    </symbol>
    <symbol id="icon-diagram" viewBox="0 0 16 16">
      <path fill="#4d5ae5" style="fill: var(--color1, #4d5ae5)"
        d="M7.475 7.5h0.5v2.375h-0.5v-2.375zM9.6 8.55h0.525v1.325h-0.525v-1.325zM5.325 9.35h0.55v0.525h-0.55v-0.525zM3.75 9.075h0.5v0.8h-0.5v-0.8z">
      </path>
      <path fill="#2e2f42" style="fill: var(--color2, #2e2f42)"
        d="M0.8 14.15h12.8c0.425 0 0.8-0.375 0.8-0.8v-1.1c0-0.425-0.375-0.8-0.8-0.8h-0.25v-6.625l1.5-1.425c0.101 0.050 0.22 0.079 0.346 0.079 0.442 0 0.8-0.358 0.8-0.8s-0.358-0.8-0.8-0.8c-0.442 0-0.8 0.358-0.8 0.8 0 0.126 0.029 0.245 0.081 0.351l-0.002-0.005-1.15 1.075v-0.625c0-0.425-0.35-0.8-0.8-0.8h-10.65c-0 0-0 0-0 0-0.442 0-0.8 0.358-0.8 0.8 0 0.009 0 0.018 0 0.026l-0-0.001v8h-0.275c-0 0-0 0-0 0-0.433 0-0.786 0.344-0.8 0.774l-0 0.001v1.075c0 0.425 0.35 0.8 0.8 0.8zM15.2 2.4c0.152 0 0.275 0.123 0.275 0.275s-0.123 0.275-0.275 0.275v0c-0.145 0-0.262-0.118-0.262-0.263s0.118-0.263 0.262-0.263v0zM1.6 3.5c0-0.15 0.125-0.25 0.25-0.25h10.675c0.15 0 0.25 0.1 0.25 0.25v1.125l-0.5 0.5v-1.075c0-0.15-0.125-0.275-0.275-0.275h-9.6c-0.138 0-0.25 0.112-0.25 0.25v0 6.675c0 0.15 0.1 0.25 0.25 0.25h9.6c0.15 0 0.25-0.1 0.25-0.25v-4.85l0.55-0.5v6.125h-11.2v-7.975zM4 6.95c-0.002-0-0.004-0-0.006-0-0.442 0-0.8 0.358-0.8 0.8s0.358 0.8 0.8 0.8c0.216 0 0.412-0.086 0.556-0.225l-0 0 0.925 0.475c0.1 0.050 0.25 0 0.325-0.075l1.95-2.225 1.925 1.45c0.1 0.1 0.25 0.075 0.35 0l1.675-1.6v4.075h-9.025v-6.175h9.050v1.35l-1.875 1.775-1.95-1.475c-0.044-0.039-0.102-0.063-0.166-0.063-0.087 0-0.164 0.045-0.209 0.112l-0.001 0.001-2 2.25-0.75-0.375v-0.075c0-0.45-0.325-0.8-0.775-0.8zM4.25 7.75c0 0.138-0.112 0.25-0.25 0.25s-0.25-0.112-0.25-0.25v0c0-0.138 0.112-0.25 0.25-0.25s0.25 0.112 0.25 0.25v0zM5.875 12h2.625v0.275c0 0.15-0.125 0.25-0.25 0.25h-2.15c-0.138 0-0.25-0.112-0.25-0.25v0-0.25zM0.5 12.3c0-0.15 0.125-0.25 0.275-0.25h4.525v0.25c0 0.45 0.375 0.8 0.8 0.8h2.15c0.45 0 0.8-0.35 0.8-0.8v-0.25h4.55c0.15 0 0.25 0.1 0.25 0.25v1.075c0 0.15-0.1 0.25-0.25 0.25h-12.8c-0.138 0-0.25-0.112-0.25-0.25v0-1.125z">
      </path>
    </symbol>
    <symbol id="icon-astronaut" viewBox="0 0 16 16">
      <path fill="#4d5ae5" style="fill: var(--color1, #4d5ae5)"
        d="M16 2.25c-0.033-0.102-0.127-0.175-0.239-0.175-0.004 0-0.008 0-0.012 0l0.001-0-0.925-0.125-0.425-0.875c-0.1-0.175-0.4-0.175-0.5 0l-0.4 0.875-0.95 0.125c-0.138 0-0.25 0.112-0.25 0.25 0 0.082 0.039 0.154 0.099 0.2l0.001 0 0.7 0.675-0.175 0.95c-0.031 0.041-0.050 0.093-0.050 0.15 0 0.138 0.112 0.25 0.25 0.25 0.082 0 0.154-0.039 0.2-0.099l0-0.001 0.85-0.45 0.85 0.45c0.046 0.061 0.118 0.1 0.2 0.1 0.138 0 0.25-0.112 0.25-0.25 0-0.057-0.019-0.109-0.050-0.151l0 0.001-0.175-0.95 0.7-0.675c0.075-0.050 0.1-0.175 0.050-0.25zM14.75 2.925c-0.051 0.046-0.083 0.112-0.083 0.186 0 0.023 0.003 0.045 0.009 0.065l-0-0.002 0.1 0.55-0.5-0.25c-0.036-0.021-0.079-0.034-0.125-0.034s-0.089 0.012-0.126 0.034l0.001-0.001-0.5 0.25 0.1-0.575c0-0.075 0-0.175-0.075-0.225l-0.4-0.4 0.55-0.075c0.075 0 0.15-0.075 0.2-0.15l0.25-0.5 0.25 0.5c0.050 0.075 0.125 0.125 0.2 0.15l0.55 0.075-0.4 0.4zM13.075 10.25h-0.575v0.55h0.55v-0.55zM13.075 11.325h-0.575v0.525h0.55v-0.5zM13.6 10.8h-0.525v0.525h0.525v-0.525z">
      </path>
      <path fill="#4d5ae5" style="fill: var(--color1, #4d5ae5)"
        d="M12.525 10.8h-0.525v0.525h0.525v-0.525zM11.2 13.2h-0.525v0.525h0.525v-0.525zM11.2 14.25h-0.525v0.55h0.525v-0.55zM11.75 13.75h-0.55v0.5h0.525v-0.5zM10.675 13.75h-0.55v0.5h0.55v-0.5zM8 12.125h-0.525v0.525h0.525v-0.5zM8 13.2h-0.525v0.525h0.525v-0.525zM8.525 12.65h-0.525v0.55h0.525v-0.55z">
      </path>
      <path fill="#4d5ae5" style="fill: var(--color1, #4d5ae5)"
        d="M7.475 12.65h-0.55v0.55h0.575v-0.55zM2.925 3.050h-0.525v0.55h0.525v-0.55zM2.925 4.125h-0.525v0.525h0.525v-0.5zM3.475 3.6h-0.55v0.525h0.575v-0.525zM2.4 3.6h-0.525v0.525h0.525v-0.525z">
      </path>
      <path fill="#2e2f42" style="fill: var(--color2, #2e2f42)"
        d="M12.35 7.075c-0.135-0.184-0.337-0.313-0.57-0.349l-0.005-0.001c-0.25-0.025-0.5 0.025-0.675 0.175l-0.625 0.5-0.95 0.7-0.675-0.275c1.196-0.566 2.008-1.763 2.008-3.15 0-1.904-1.532-3.451-3.431-3.475l-0.002-0c-1.913 0.026-3.454 1.583-3.454 3.5 0 0.685 0.197 1.325 0.538 1.865l-0.009-0.014h-1.4c-0.011-0.002-0.024-0.003-0.038-0.003s-0.026 0.001-0.039 0.003l0.001-0h-0.025l-1.625 0.8-0.95 0.45-0.025 0.025c-0.204 0.166-0.334 0.418-0.334 0.7 0 0.497 0.403 0.9 0.9 0.9 0.13 0 0.253-0.027 0.365-0.077l-0.006 0.002 0.675-0.35 1.15-0.575h0.675l-2.725 2.675-0.675 0.675c-0.152 0.15-0.246 0.358-0.246 0.588s0.094 0.438 0.246 0.587l0 0c0.15 0.152 0.358 0.246 0.588 0.246s0.438-0.094 0.587-0.246l0-0 0.675-0.65 0.85-0.65 0.45 0.45-1.55 1.55c-0.152 0.15-0.246 0.358-0.246 0.588s0.094 0.438 0.246 0.587l0 0c0.151 0.159 0.364 0.259 0.6 0.259s0.449-0.099 0.6-0.258l0-0 0.65-0.675 1.575-1.575 2.625-2.825 1.75 0.25c0.005 0 0.010 0 0.015 0 0.040 0 0.078-0.009 0.111-0.026l-0.001 0.001 0.050-0.025 1.6-1.075h0.050l0.6-0.625c0.168-0.164 0.272-0.392 0.272-0.645 0-0.199-0.065-0.383-0.174-0.532l0.002 0.003zM1.075 8.875c-0.1 0.050-0.2 0.075-0.3 0.025-0.147-0.044-0.252-0.178-0.252-0.336 0-0.119 0.060-0.225 0.151-0.288l0.001-0.001 0.65-0.275 0.175 0.45 0.050 0.2-0.5 0.25zM2.825 7.975l-0.775 0.4-0.15-0.375-0.075-0.25 1-0.5v0.725zM10.375 4.65c0 0.475-0.125 0.9-0.3 1.3l-2.1-0.95c0-0.3-0.175-0.55-0.4-0.7l0.75-2.425c1.175 0.375 2.050 1.5 2.050 2.775zM4.475 4.65c0.015-1.618 1.33-2.924 2.95-2.924 0.132 0 0.262 0.009 0.39 0.026l-0.015-0.002-0.75 2.375c-0.5 0-0.95 0.425-0.95 0.925-0.001 0.018-0.002 0.039-0.002 0.061 0 0.511 0.414 0.925 0.925 0.925 0.36 0 0.672-0.205 0.825-0.505l0.002-0.005 1.925 0.875c-0.544 0.712-1.394 1.167-2.35 1.167-1.618 0-2.931-1.302-2.95-2.915l-0-0.002zM7.45 5.050c0 0.25-0.175 0.4-0.4 0.4-0.25 0-0.4-0.175-0.4-0.4 0-0.2 0.175-0.4 0.4-0.4s0.4 0.2 0.4 0.4zM1.225 12.55c-0.1 0.15-0.3 0.15-0.425 0-0.047-0.053-0.076-0.123-0.076-0.2s0.029-0.147 0.077-0.2l-0 0 0.5-0.5 0.4 0.45-0.45 0.475zM2.85 14.45c-0.125 0.1-0.325 0.1-0.45 0-0.055-0.054-0.088-0.129-0.088-0.213s0.034-0.158 0.088-0.212l0.5-0.5 0.2 0.225 0.225 0.2-0.5 0.5zM4.6 12.7l-0.9 0.875-0.2-0.2-0.25-0.225 0.9-0.875 0.050-0.050v-0.025l0.025-0.075v-0.125c-0.013-0.029-0.030-0.054-0.050-0.075l-0.825-0.825h-0.025l-0.050-0.050h-0.25v0.025l-0.925 0.675-0.45-0.45 1.2-1.2 2.175 2.15-0.475 0.45zM8 9.2h-0.025c-0.011-0.002-0.023-0.003-0.036-0.003-0.042 0-0.081 0.010-0.116 0.028l0.001-0.001-0.050 0.050-2.375 2.575-2.15-2.1 1.4-1.4c0.098-0.037 0.166-0.129 0.166-0.238 0-0.14-0.113-0.253-0.253-0.253-0.031 0-0.061 0.006-0.089 0.016l0.002-0.001h-1.125v-0.775h1.575c0.632 0.652 1.517 1.057 2.496 1.057 0.222 0 0.44-0.021 0.651-0.061l-0.022 0.003 0.075 0.025 1.2 0.5 0.075 0.375 0.1 0.425-1.5-0.2zM10 9.275l-0.15-0.75 0.75-0.55 0.175 0.25 0.275 0.375-1.050 0.65zM11.875 7.875l-0.375 0.375-0.5-0.6 0.425-0.325c0.075-0.050 0.175-0.075 0.25-0.075 0.186 0.009 0.334 0.162 0.334 0.35 0 0.111-0.052 0.211-0.133 0.275l-0.001 0.001z">
      </path>
      <path fill="#2e2f42" style="fill: var(--color2, #2e2f42)"
        d="M6.8 9.25l-1.075-1.050c-0.046-0.052-0.113-0.085-0.188-0.085s-0.141 0.033-0.187 0.084l-0 0-1.075 1.075c-0.052 0.046-0.085 0.113-0.085 0.188s0.033 0.141 0.084 0.187l0 0 1.075 1.075c0.046 0.052 0.113 0.085 0.188 0.085s0.141-0.033 0.187-0.084l0-0 1.075-1.075c0.052-0.046 0.085-0.113 0.085-0.188s-0.033-0.141-0.084-0.187l-0-0zM5.55 10.15l-0.7-0.7 0.7-0.675 0.675 0.675-0.675 0.7zM8.575 2.525l-0.125 0.525c0.050 0 0.875 0.25 0.875 1.075h0.525c0-1-0.825-1.5-1.25-1.6zM9.85 4.65h-0.525v0.55h0.525v-0.55z">
      </path>
    </symbol>
  </defs>
</svg>